<mxfile host="app.diagrams.net" modified="2022-03-29T06:56:15.823Z" agent="5.0 (Windows NT 6.3; Win64; x64) AppleWebKit/537.36 (KHTML, like Gecko) Chrome/99.0.4844.84 Safari/537.36" etag="dPO2NO_J3u0kWxH4WJBF" version="17.2.4" type="github">
  <diagram id="mVZzrhK9A2pAnDpOIVOZ" name="第 1 页">
    <mxGraphModel dx="1398" dy="889" grid="1" gridSize="10" guides="1" tooltips="1" connect="1" arrows="1" fold="1" page="1" pageScale="1" pageWidth="827" pageHeight="1169" math="0" shadow="0">
      <root>
        <mxCell id="0" />
        <mxCell id="1" parent="0" />
        <mxCell id="NZoMWlQrjUIQdaFPNsFo-1" value="" style="group" vertex="1" connectable="0" parent="1">
          <mxGeometry x="120" y="80" width="450" height="200" as="geometry" />
        </mxCell>
        <mxCell id="NZoMWlQrjUIQdaFPNsFo-2" value="&lt;b&gt;Sonia&lt;br&gt;(Client)&lt;/b&gt;" style="text;html=1;strokeColor=#d6b656;fillColor=#fff2cc;align=center;verticalAlign=middle;whiteSpace=wrap;overflow=hidden;gradientColor=#ffd966;" vertex="1" parent="NZoMWlQrjUIQdaFPNsFo-1">
          <mxGeometry y="81" width="80" height="40" as="geometry" />
        </mxCell>
        <mxCell id="NZoMWlQrjUIQdaFPNsFo-3" style="edgeStyle=orthogonalEdgeStyle;rounded=1;orthogonalLoop=1;jettySize=auto;html=1;exitX=0;exitY=0.75;exitDx=0;exitDy=0;entryX=1;entryY=0.75;entryDx=0;entryDy=0;strokeColor=#00CC66;strokeWidth=2;fontColor=#00CC66;" edge="1" parent="NZoMWlQrjUIQdaFPNsFo-1" source="NZoMWlQrjUIQdaFPNsFo-4" target="NZoMWlQrjUIQdaFPNsFo-2">
          <mxGeometry relative="1" as="geometry" />
        </mxCell>
        <mxCell id="NZoMWlQrjUIQdaFPNsFo-4" value="Mon" style="text;html=1;strokeColor=#82b366;fillColor=#d5e8d4;align=center;verticalAlign=middle;whiteSpace=wrap;overflow=hidden;gradientColor=#97d077;" vertex="1" parent="NZoMWlQrjUIQdaFPNsFo-1">
          <mxGeometry x="170" y="81" width="80" height="40" as="geometry" />
        </mxCell>
        <mxCell id="NZoMWlQrjUIQdaFPNsFo-5" style="edgeStyle=orthogonalEdgeStyle;rounded=1;orthogonalLoop=1;jettySize=auto;html=1;exitX=1;exitY=0.25;exitDx=0;exitDy=0;entryX=0;entryY=0.25;entryDx=0;entryDy=0;strokeColor=#00CC66;strokeWidth=2;fontColor=#00CC66;" edge="1" parent="NZoMWlQrjUIQdaFPNsFo-1" source="NZoMWlQrjUIQdaFPNsFo-2" target="NZoMWlQrjUIQdaFPNsFo-4">
          <mxGeometry relative="1" as="geometry" />
        </mxCell>
        <mxCell id="NZoMWlQrjUIQdaFPNsFo-6" style="edgeStyle=orthogonalEdgeStyle;rounded=1;sketch=0;jumpStyle=none;orthogonalLoop=1;jettySize=auto;html=1;exitX=0;exitY=0.75;exitDx=0;exitDy=0;entryX=1;entryY=0.25;entryDx=0;entryDy=0;fontSize=11;strokeColor=#CC0066;strokeWidth=2;" edge="1" parent="NZoMWlQrjUIQdaFPNsFo-1" source="NZoMWlQrjUIQdaFPNsFo-8" target="NZoMWlQrjUIQdaFPNsFo-4">
          <mxGeometry relative="1" as="geometry" />
        </mxCell>
        <mxCell id="NZoMWlQrjUIQdaFPNsFo-7" value="保活同步" style="edgeLabel;html=1;align=center;verticalAlign=middle;resizable=0;points=[];" vertex="1" connectable="0" parent="NZoMWlQrjUIQdaFPNsFo-6">
          <mxGeometry x="0.2786" y="-2" relative="1" as="geometry">
            <mxPoint as="offset" />
          </mxGeometry>
        </mxCell>
        <mxCell id="NZoMWlQrjUIQdaFPNsFo-8" value="OSD.0&lt;br&gt;(&lt;font style=&quot;font-size: 11px&quot;&gt;硬盘0&lt;/font&gt;)" style="text;html=1;strokeColor=#82b366;fillColor=#d5e8d4;align=center;verticalAlign=middle;whiteSpace=wrap;overflow=hidden;gradientColor=#97d077;" vertex="1" parent="NZoMWlQrjUIQdaFPNsFo-1">
          <mxGeometry x="329" width="80" height="40" as="geometry" />
        </mxCell>
        <mxCell id="NZoMWlQrjUIQdaFPNsFo-9" style="edgeStyle=orthogonalEdgeStyle;rounded=1;orthogonalLoop=1;jettySize=auto;html=1;exitX=0.5;exitY=0;exitDx=0;exitDy=0;entryX=0;entryY=0.25;entryDx=0;entryDy=0;strokeColor=#FF8000;sketch=0;strokeWidth=2;" edge="1" parent="NZoMWlQrjUIQdaFPNsFo-1" source="NZoMWlQrjUIQdaFPNsFo-2" target="NZoMWlQrjUIQdaFPNsFo-8">
          <mxGeometry relative="1" as="geometry" />
        </mxCell>
        <mxCell id="NZoMWlQrjUIQdaFPNsFo-10" value="IO读写" style="edgeLabel;html=1;align=center;verticalAlign=middle;resizable=0;points=[];fontSize=11;" vertex="1" connectable="0" parent="NZoMWlQrjUIQdaFPNsFo-9">
          <mxGeometry x="-0.0212" y="1" relative="1" as="geometry">
            <mxPoint as="offset" />
          </mxGeometry>
        </mxCell>
        <mxCell id="NZoMWlQrjUIQdaFPNsFo-11" style="edgeStyle=orthogonalEdgeStyle;rounded=1;sketch=0;jumpStyle=none;orthogonalLoop=1;jettySize=auto;html=1;exitX=0;exitY=0.25;exitDx=0;exitDy=0;entryX=1;entryY=0.75;entryDx=0;entryDy=0;fontSize=11;strokeColor=#CC0066;strokeWidth=2;" edge="1" parent="NZoMWlQrjUIQdaFPNsFo-1" source="NZoMWlQrjUIQdaFPNsFo-12" target="NZoMWlQrjUIQdaFPNsFo-4">
          <mxGeometry relative="1" as="geometry" />
        </mxCell>
        <mxCell id="NZoMWlQrjUIQdaFPNsFo-12" value="OSD.2&lt;br&gt;(&lt;font style=&quot;font-size: 11px&quot;&gt;硬盘2&lt;/font&gt;)" style="text;html=1;strokeColor=#82b366;fillColor=#d5e8d4;align=center;verticalAlign=middle;whiteSpace=wrap;overflow=hidden;gradientColor=#97d077;" vertex="1" parent="NZoMWlQrjUIQdaFPNsFo-1">
          <mxGeometry x="329" y="160" width="80" height="40" as="geometry" />
        </mxCell>
        <mxCell id="NZoMWlQrjUIQdaFPNsFo-13" style="edgeStyle=orthogonalEdgeStyle;rounded=1;sketch=0;orthogonalLoop=1;jettySize=auto;html=1;exitX=1;exitY=0.25;exitDx=0;exitDy=0;entryX=1;entryY=0.25;entryDx=0;entryDy=0;fontSize=11;strokeColor=#FF8000;strokeWidth=2;" edge="1" parent="NZoMWlQrjUIQdaFPNsFo-1" source="NZoMWlQrjUIQdaFPNsFo-8" target="NZoMWlQrjUIQdaFPNsFo-12">
          <mxGeometry relative="1" as="geometry">
            <Array as="points">
              <mxPoint x="450" y="10" />
              <mxPoint x="450" y="170" />
            </Array>
          </mxGeometry>
        </mxCell>
        <mxCell id="NZoMWlQrjUIQdaFPNsFo-14" value="IO分发" style="edgeLabel;html=1;align=center;verticalAlign=middle;resizable=0;points=[];fontSize=11;" vertex="1" connectable="0" parent="NZoMWlQrjUIQdaFPNsFo-13">
          <mxGeometry x="-0.2897" y="-4" relative="1" as="geometry">
            <mxPoint as="offset" />
          </mxGeometry>
        </mxCell>
        <mxCell id="NZoMWlQrjUIQdaFPNsFo-15" style="edgeStyle=orthogonalEdgeStyle;rounded=1;sketch=0;jumpStyle=none;orthogonalLoop=1;jettySize=auto;html=1;exitX=0;exitY=0.5;exitDx=0;exitDy=0;entryX=1;entryY=0.5;entryDx=0;entryDy=0;fontSize=11;strokeColor=#CC0066;strokeWidth=2;" edge="1" parent="NZoMWlQrjUIQdaFPNsFo-1" source="NZoMWlQrjUIQdaFPNsFo-16" target="NZoMWlQrjUIQdaFPNsFo-4">
          <mxGeometry relative="1" as="geometry" />
        </mxCell>
        <mxCell id="NZoMWlQrjUIQdaFPNsFo-16" value="OSD.1&lt;br&gt;(&lt;font style=&quot;font-size: 11px&quot;&gt;硬盘1&lt;/font&gt;)" style="text;html=1;strokeColor=#82b366;fillColor=#d5e8d4;align=center;verticalAlign=middle;whiteSpace=wrap;overflow=hidden;gradientColor=#97d077;" vertex="1" parent="NZoMWlQrjUIQdaFPNsFo-1">
          <mxGeometry x="329" y="81" width="80" height="40" as="geometry" />
        </mxCell>
        <mxCell id="NZoMWlQrjUIQdaFPNsFo-17" style="edgeStyle=orthogonalEdgeStyle;rounded=1;sketch=0;orthogonalLoop=1;jettySize=auto;html=1;exitX=1;exitY=0.75;exitDx=0;exitDy=0;entryX=1;entryY=0.25;entryDx=0;entryDy=0;fontSize=11;strokeColor=#FF8000;strokeWidth=2;" edge="1" parent="NZoMWlQrjUIQdaFPNsFo-1" source="NZoMWlQrjUIQdaFPNsFo-8" target="NZoMWlQrjUIQdaFPNsFo-16">
          <mxGeometry relative="1" as="geometry" />
        </mxCell>
        <mxCell id="NZoMWlQrjUIQdaFPNsFo-18" value="&lt;b&gt;&lt;font color=&quot;#006666&quot;&gt;建立集群链接&lt;/font&gt;&lt;/b&gt;" style="text;html=1;strokeColor=none;fillColor=none;align=center;verticalAlign=middle;whiteSpace=wrap;rounded=0;" vertex="1" parent="NZoMWlQrjUIQdaFPNsFo-1">
          <mxGeometry x="90" y="60" width="80" height="30" as="geometry" />
        </mxCell>
        <mxCell id="NZoMWlQrjUIQdaFPNsFo-19" value="&lt;b&gt;&lt;font color=&quot;#006666&quot;&gt;同步集群状态&lt;/font&gt;&lt;/b&gt;" style="text;html=1;strokeColor=none;fillColor=none;align=center;verticalAlign=middle;whiteSpace=wrap;rounded=0;" vertex="1" parent="NZoMWlQrjUIQdaFPNsFo-1">
          <mxGeometry x="90" y="110" width="80" height="30" as="geometry" />
        </mxCell>
      </root>
    </mxGraphModel>
  </diagram>
</mxfile>
